<svg width="21" height="20" viewBox="0 0 21 20" fill="none" xmlns="http://www.w3.org/2000/svg">
<path fill-rule="evenodd" clip-rule="evenodd" d="M4.70801 5C4.70801 3.61929 5.8273 2.5 7.20801 2.5H13.458C14.8387 2.5 15.958 3.61929 15.958 5V5.33464C16.7048 5.7666 17.208 6.57395 17.208 7.5V7.83464C17.9548 8.2666 18.458 9.07395 18.458 10V15C18.458 16.3807 17.3387 17.5 15.958 17.5H4.70801C3.3273 17.5 2.20801 16.3807 2.20801 15V10C2.20801 9.07395 2.71126 8.2666 3.45801 7.83464V7.5C3.45801 6.57395 3.96126 5.7666 4.70801 5.33464V5ZM5.95801 5H14.708C14.708 4.30964 14.1484 3.75 13.458 3.75H7.20801C6.51765 3.75 5.95801 4.30964 5.95801 5ZM4.70801 7.5H15.958C15.958 6.95672 15.6111 6.49286 15.1247 6.32097C14.9952 6.27519 14.8552 6.25 14.708 6.25H5.95801C5.81079 6.25 5.67081 6.27519 5.54129 6.32097C5.05495 6.49286 4.70801 6.95672 4.70801 7.5ZM4.70801 8.75C4.56079 8.75 4.42081 8.77519 4.29129 8.82097C3.80495 8.99286 3.45801 9.45672 3.45801 10V15C3.45801 15.6904 4.01765 16.25 4.70801 16.25H15.958C16.6484 16.25 17.208 15.6904 17.208 15V10C17.208 9.45672 16.8611 8.99286 16.3747 8.82097C16.2452 8.77519 16.1052 8.75 15.958 8.75H4.70801Z" fill="white"/>
</svg>
